<?xml version="1.0" encoding="utf-8"?>
<!DOCTYPE svg PUBLIC "-//W3C//DTD SVG 1.1//EN" "http://www.w3.org/Graphics/SVG/1.1/DTD/svg11.dtd">
<svg version="1.1" xmlns="http://www.w3.org/2000/svg" xmlns:xlink="http://www.w3.org/1999/xlink" x="0px" y="0px"
     width="64px" height="64px" viewBox="0 0 64 64" enable-background="new 0 0 64 64" xml:space="preserve" style="display:none;">
    <defs>
        <circle cx="32" cy="32" r="30" fill="#B5B5B6" id="animate-btn-svg-background-circle"/>
        <circle cx="32" cy="32" r="30" fill="#B5B5B6" id="animate-btn-svg-background-circle-share"/>
        <rect rx="5" ry="5" width="64" height="64" id="animate-btn-svg-background-rect"/>

        <g id="animate-btn-svg-open-magnifier">
    		<use xlink:href="#animate-btn-svg-background-circle"></use>
            <path d="M47.67,47.23l-7.59-7.86a13.81,13.81,0,1,0-.8.77L46.87,48ZM17.44,29.8A12.69,12.69,0,1,1,30.14,42.5,12.71,12.71,0,0,1,17.44,29.8Z"/>
            <polygon points="31.34 29.35 31.34 23.85 30.34 23.85 30.34 29.35 24.84 29.35 24.84 30.35 30.34 30.35 30.34 35.85 31.34 35.85 31.34 30.35 36.84 30.35 36.84 29.35 31.34 29.35"/><!-- == -->
        </g>
        <g id="animate-btn-svg-close-magnifier">
            <use xlink:href="#animate-btn-svg-background-circle"></use>
            <path d="M47.67,47.23l-7.59-7.86a13.81,13.81,0,1,0-.8.77L46.87,48ZM17.44,29.8A12.69,12.69,0,1,1,30.14,42.5,12.71,12.71,0,0,1,17.44,29.8Z"/>
            <rect x="25" y="29" width="12" height="1"/>
        </g>

        <g id="animate-btn-svg-zoomin">
            <use xlink:href="#animate-btn-svg-background-circle"></use>
            <path d="M16 31h32v2h-32zM31 16h2v32h-2z"/>
        </g>

        <g id="animate-btn-svg-zoomout">
            <use xlink:href="#animate-btn-svg-background-circle"></use>
            <path d="M16 31h32v2h-32z"/>
        </g>

        <g id="animate-btn-svg-start-measure">
            <use xlink:href="#animate-btn-svg-background-circle"></use>
            <!-- <text fill="#FFFFFF" x="32" y="48" style="font-family: Verdana; font-weight: 100; font-size: 42px; text-anchor: middle; font-variant-ligatures: normal; font-variant-caps: normal;">M</text> -->
            <path d="M31.053 33.806l-.846-.849 2.834-2.824.846.849zM26.172 38.686l-.85-.849 2.825-2.829.85.849zM35.104 28.047l2.828-2.829.848.848-2.828 2.829zM46.71 23.512c1.718-1.719 1.718-4.505-.001-6.223-1.718-1.718-4.504-1.719-6.223-.001-1.719 1.719-1.719 4.505.001 6.224 1.718 1.718 4.504 1.718 6.223 0zm-5.53-5.532c1.335-1.336 3.503-1.335 4.838 0 1.336 1.335 1.336 3.502 0 4.838-1.335 1.336-3.503 1.337-4.838 0-1.336-1.335-1.336-3.502 0-4.838zM17.287 40.488c-1.719 1.717-1.719 4.504 0 6.223 1.718 1.719 4.505 1.719 6.223 0 1.717-1.719 1.717-4.506 0-6.223-1.718-1.718-4.505-1.718-6.223 0zm5.531 5.532c-1.338 1.336-3.504 1.336-4.84 0-1.334-1.336-1.335-3.504 0-4.84 1.338-1.336 3.504-1.336 4.84 0 1.336 1.334 1.336 3.502 0 4.84z"/>
        </g>
        <g id="animate-btn-svg-stop-measure">
            <use xlink:href="#animate-btn-svg-background-circle"></use>
            <!-- <text fill="#FFFFFF" x="32" y="48" style="font-family: Verdana; font-weight: 100; font-size: 42px; text-anchor: middle; font-variant-ligatures: normal; font-variant-caps: normal;">M</text> -->
            <path d="M48.002 47.152l-3.772-3.771 3.767-3.766-.848-.847-3.766 3.765-3.764-3.763-.848.847 3.764 3.764-3.768 3.769.847.848 3.769-3.768 3.77 3.77zM31.053 33.806l-.846-.849 2.834-2.824.846.849zM26.172 38.686l-.85-.849 2.825-2.829.85.849zM35.104 28.047l2.828-2.829.848.848-2.828 2.829zM46.71 23.512c1.718-1.719 1.718-4.505-.001-6.223-1.718-1.718-4.504-1.719-6.223-.001-1.719 1.719-1.719 4.505.001 6.224 1.718 1.718 4.504 1.718 6.223 0zm-5.53-5.532c1.335-1.336 3.503-1.335 4.838 0 1.336 1.335 1.336 3.502 0 4.838-1.335 1.336-3.503 1.337-4.838 0-1.336-1.335-1.336-3.502 0-4.838zM17.287 40.488c-1.719 1.717-1.719 4.504 0 6.223 1.718 1.719 4.505 1.719 6.223 0 1.717-1.719 1.717-4.506 0-6.223-1.718-1.718-4.505-1.718-6.223 0zm5.531 5.532c-1.338 1.336-3.504 1.336-4.84 0-1.334-1.336-1.335-3.504 0-4.84 1.338-1.336 3.504-1.336 4.84 0 1.336 1.334 1.336 3.502 0 4.84z"/>
        </g>
        <g id="animate-btn-svg-start-measure-2">
            <use xlink:href="#animate-btn-svg-background-circle"></use>
            <!-- <text fill="#FFFFFF" x="32" y="48" style="font-family: Verdana; font-weight: 100; font-size: 42px; text-anchor: middle; font-variant-ligatures: normal; font-variant-caps: normal;">M</text> -->
            <path d="M47.854 21.654l-.85-.85-.02.02-3.83-3.83.018-.018-.85-.85-.018.018-.008-.007-.848.848.008.007-2.316 2.318-.007-.007-.85.849.008.007-2.302 2.301-.003-.003-.848.846.004.004-2.316 2.315-.002-.002-.848.848.002.002-2.316 2.316-.002-.002-.85.848.003.003-2.316 2.316-.001-.001-.848.848.001.002-2.313 2.312-.001-.001-.85.85.001.001-2.317 2.317-.002-.002-.85.849.002.003-2.33 2.329-.007-.007-.848.848 5.115 5.115.02-.02.422.422 26.163-26.162zm-27.684 18.323l1.623 1.623.85-.85-1.623-1.623 2.318-2.317 2.684 2.683.85-.849-2.684-2.684 2.313-2.312 1.622 1.621.848-.848-1.622-1.621 2.316-2.317 2.684 2.684.848-.849-2.683-2.684 2.316-2.316 1.623 1.623.848-.848-1.623-1.623 2.316-2.315 2.682 2.682.846-.846-2.682-2.683 2.303-2.302 1.617 1.617.85-.85-1.618-1.617 2.317-2.316 3.83 3.83-24.467 24.467-3.831-3.831 2.329-2.329z"/>
            <path d="M21.011000000000003,43.821a0.688,0.688 0 1,0 1.376,0a0.688,0.688 0 1,0 -1.376,0"/>
        </g>
        <g id="animate-btn-svg-stop-measure-2">
            <use xlink:href="#animate-btn-svg-background-circle"></use>
            <!-- <text fill="#FFFFFF" x="32" y="48" style="font-family: Verdana; font-weight: 100; font-size: 42px; text-anchor: middle; font-variant-ligatures: normal; font-variant-caps: normal;">M</text> -->
            <path d="M47.863 47.025l-3.772-3.772 3.764-3.765-.847-.847-3.765 3.764-3.763-3.762-.847.847 3.763 3.763-3.771 3.77.848.848 3.77-3.77 3.773 3.772zM47.854 21.654l-.85-.85-.02.02-3.83-3.83.018-.018-.85-.85-.018.018-.008-.007-.848.848.008.007-2.316 2.318-.007-.007-.85.849.008.007-2.302 2.301-.003-.003-.848.846.004.004-2.316 2.315-.002-.002-.848.848.002.002-2.316 2.316-.002-.002-.85.848.003.003-2.316 2.316-.001-.001-.848.848.001.002-2.313 2.312-.001-.001-.85.85.001.001-2.317 2.317-.002-.002-.85.849.002.003-2.33 2.329-.007-.007-.848.848 5.115 5.115.02-.02.422.422 26.163-26.162zm-27.684 18.323l1.623 1.623.85-.85-1.623-1.623 2.318-2.317 2.684 2.683.85-.849-2.684-2.684 2.313-2.312 1.622 1.621.848-.848-1.622-1.621 2.316-2.317 2.684 2.684.848-.849-2.683-2.684 2.316-2.316 1.623 1.623.848-.848-1.623-1.623 2.316-2.315 2.682 2.682.846-.846-2.682-2.683 2.303-2.302 1.617 1.617.85-.85-1.618-1.617 2.317-2.316 3.83 3.83-24.467 24.467-3.831-3.831 2.329-2.329z"/><circle cx="21.699" cy="43.821" r=".688"/>
            <path d="M21.011000000000003,43.821a0.688,0.688 0 1,0 1.376,0a0.688,0.688 0 1,0 -1.376,0"/>
        </g>
        <g id="animate-hint-svg-measure">
            <!-- <line x1="-7.5" y1="32" x2="71.5" y2="32" transform="rotate(-45 32, 32)" fill="none" stroke="#000000" stroke-width="4"/>
            <line x1="62" y1="0"  x2="62" y2="15" fill="none" stroke="#000000" stroke-width="4"/>
            <line x1="2"  y1="49" x2="2"  y2="64" fill="none" stroke="#000000" stroke-width="4"/>
            <line x1="0"  y1="62" x2="15" y2="62" fill="none" stroke="#000000" stroke-width="4"/>
            <line x1="49" y1="2"  x2="64" y2="2"  fill="none" stroke="#000000" stroke-width="4"/> -->
            <path d="M47.854 21.654l-.85-.85-.02.02-3.83-3.83.018-.018-.85-.85-.018.018-.008-.007-.848.848.008.007-2.316 2.318-.007-.007-.85.849.008.007-2.302 2.301-.003-.003-.848.846.004.004-2.316 2.315-.002-.002-.848.848.002.002-2.316 2.316-.002-.002-.85.848.003.003-2.316 2.316-.001-.001-.848.848.001.002-2.313 2.312-.001-.001-.85.85.001.001-2.317 2.317-.002-.002-.85.849.002.003-2.33 2.329-.007-.007-.848.848 5.115 5.115.02-.02.422.422 26.163-26.162zm-27.684 18.323l1.623 1.623.85-.85-1.623-1.623 2.318-2.317 2.684 2.683.85-.849-2.684-2.684 2.313-2.312 1.622 1.621.848-.848-1.622-1.621 2.316-2.317 2.684 2.684.848-.849-2.683-2.684 2.316-2.316 1.623 1.623.848-.848-1.623-1.623 2.316-2.315 2.682 2.682.846-.846-2.682-2.683 2.303-2.302 1.617 1.617.85-.85-1.618-1.617 2.317-2.316 3.83 3.83-24.467 24.467-3.831-3.831 2.329-2.329z"/>
            <path d="M21.011000000000003,43.821a0.688,0.688 0 1,0 1.376,0a0.688,0.688 0 1,0 -1.376,0"/>
        </g>

        <g id="animate-btn-svg-play">
            <use xlink:href="#animate-btn-svg-background-circle"></use>
            <polygon transform="translate(4,0)" points="19.24 17.65 18.29 17.65 18.29 48 45.71 31.66 18.29 16 18.29 17.65 19.24 17.65 18.77 18.48 41.92 31.7 20.2 44.64 20.2 17.65 19.24 17.65 18.77 18.48 19.24 17.65"/>
        </g>
        <g id="animate-btn-svg-stop">
            <use xlink:href="#animate-btn-svg-background-circle"></use>
            <polygon points="27.75 46.06 27.75 45.13 23.34 45.13 23.34 18.88 26.81 18.88 26.81 46.06 27.75 46.06 27.75 45.13 27.75 46.06 28.68 46.06 28.68 17 21.47 17 21.47 47 28.68 47 28.68 46.06 27.75 46.06"/>
            <polygon points="41.6 46.06 41.6 45.13 37.19 45.13 37.19 18.88 40.66 18.88 40.66 46.06 41.6 46.06 41.6 45.13 41.6 46.06 42.53 46.06 42.53 17 35.32 17 35.32 47 42.53 47 42.53 46.06 41.6 46.06"/>
        </g>
        <g id="animate-btn-svg-fullscreen">
            <use xlink:href="#animate-btn-svg-background-circle"></use>
            <polygon points="48 41 48 47 42 47 42 45 46 45 46 41 48 41"/>
            <polygon points="22 47 16 47 16 41 18 41 18 45 22 45 22 47"/>
            <polygon points="16 24 16 18 22 18 22 20 18 20 18 24 16 24"/>
            <polygon points="42 18 48 18 48 24 46 24 46 20 42 20 42 18"/>
        </g>
        <g id="animate-btn-svg-fitscreen">
            <use xlink:href="#animate-btn-svg-background-circle"></use>
            <polygon points="23 18 23 25 16 25 16 23 21 23 21 18 23 18"/>
            <polygon points="48 25 41 25 41 18 43 18 43 23 48 23 48 25"/>
            <polygon points="41 47 41 40 48 40 48 42 43 42 43 47 41 47"/>
            <polygon points="16 40 23 40 23 47 21 47 21 42 16 42 16 40"/>
        </g>
        <g id="animate-btn-svg-info">
            <use xlink:href="#animate-btn-svg-background-circle"></use>
            <path d="M34.14,38.56a1.56,1.56,0,0,1-.94-0.21,1,1,0,0,1-.27-0.8A4.15,4.15,0,0,1,33,36.85,8,8,0,0,1,33.2,36l0.86-3a4.47,4.47,0,0,0,.17-0.89c0-.33,0-0.55,0-0.68A1.91,1.91,0,0,0,33.6,30a2.85,2.85,0,0,0-1.92-.58,5,5,0,0,0-1.47.24q-0.77.24-1.62,0.57l-0.23.91,0.6-.19a2.47,2.47,0,0,1,.69-0.1,1.4,1.4,0,0,1,.92.22,1.06,1.06,0,0,1,.24.79,3.45,3.45,0,0,1-.08.7c-0.05.25-.12,0.52-0.19,0.81l-0.86,3a8.48,8.48,0,0,0-.17.84,5.19,5.19,0,0,0-.05.73,1.9,1.9,0,0,0,.69,1.51,2.91,2.91,0,0,0,1.95.59,4.48,4.48,0,0,0,1.43-.21q0.62-.21,1.65-0.6l0.23-.91a4,4,0,0,1-.57.19A2.77,2.77,0,0,1,34.14,38.56ZM33.59,24a2.09,2.09,0,0,0-1.45.55,1.74,1.74,0,0,0,0,2.64,2.21,2.21,0,0,0,2.9,0,1.75,1.75,0,0,0,0-2.64A2.07,2.07,0,0,0,33.59,24ZM32,16A16,16,0,1,0,48,32,16,16,0,0,0,32,16Zm0,30.55A14.55,14.55,0,1,1,46.55,32,14.55,14.55,0,0,1,32,46.55Z"/>
        </g>
        <g id="animate-btn-svg-share">
            <use xlink:href="#animate-btn-svg-background-circle"></use>
            <path transform="translate(-1, 0)" d="M42.91,40.73A3.61,3.61,0,0,0,40.19,42L24.53,33.11a3.33,3.33,0,0,0,0-2.23L40.19,22a3.78,3.78,0,1,0-.72-1.27L23.81,29.62a3.63,3.63,0,1,0,0,4.76l15.66,8.87A3.62,3.62,0,1,0,42.91,40.73Zm0-23.29a2.18,2.18,0,1,1-2.18,2.18A2.18,2.18,0,0,1,42.92,17.44ZM21.1,34.18A2.18,2.18,0,1,1,23.28,32,2.18,2.18,0,0,1,21.1,34.18ZM42.92,46.54a2.18,2.18,0,1,1,2.18-2.18A2.18,2.18,0,0,1,42.92,46.54Z"/>
        </g>
        <g id="animate-btn-svg-twitter">
            <use xlink:href="#animate-btn-svg-background-circle-share"></use>
            <path d="M48,22.23a13.29,13.29,0,0,1-3.77,1,6.5,6.5,0,0,0,2.89-3.57,13.29,13.29,0,0,1-4.17,1.57,6.6,6.6,0,0,0-4.79-2,6.51,6.51,0,0,0-6.56,6.46,6.38,6.38,0,0,0,.17,1.47,18.74,18.74,0,0,1-13.53-6.75,6.36,6.36,0,0,0-.89,3.25A6.43,6.43,0,0,0,20.26,29a6.63,6.63,0,0,1-3-.81s0,0.05,0,.08a6.5,6.5,0,0,0,5.27,6.34,6.71,6.71,0,0,1-3,.11,6.56,6.56,0,0,0,6.13,4.49A13.29,13.29,0,0,1,17.57,42,13.65,13.65,0,0,1,16,41.89a18.81,18.81,0,0,0,10.06,2.9A18.4,18.4,0,0,0,44.74,26.41q0-.42,0-0.83A13.3,13.3,0,0,0,48,22.23Z"/>
        </g>
        <g id="animate-btn-svg-facebook">
            <use xlink:href="#animate-btn-svg-background-circle-share"></use>
            <path d="M34.64,26.65V23.56c0-1.44.15-2.21,2.36-2.21h3V16H35.23c-5.68,0-7.68,2.68-7.68,7.18v3.47H24V32h3.54V48h7.09V32h4.73L40,26.65H34.64Z"/>
        </g>
        <g id="animate-btn-svg-googleplus">
            <use xlink:href="#animate-btn-svg-background-circle-share"></use>
            <path d="M42.93,25.26V20.21H39.56v5.05H34.5v3.37h5.06v5h3.37v-5H48V25.26H42.93ZM29.6,33.36a5.32,5.32,0,0,1-1.7-1.88c0-.5,0-0.74,1.19-1.71a6,6,0,0,0,2.39-4.68,6.48,6.48,0,0,0-1.15-3.85H31l3.56-2.7H24.89c-3.87,0-7.26,3-7.26,6.5a6.29,6.29,0,0,0,6.14,6.44,3.59,3.59,0,0,0-.08.75A3.28,3.28,0,0,0,24,33.72c-4.37,0-8,2.95-8,6.4,0,3.1,3.54,5.35,8.42,5.35,5.27,0,8.11-3.29,8.11-6.4A6.26,6.26,0,0,0,29.6,33.36Zm-7.87-8.42a4.17,4.17,0,0,1,.73-3.2,1.83,1.83,0,0,1,1.4-.66v-0.7h0l0.06,0.7c1.62,0.05,3.17,2,3.45,4.26a4.27,4.27,0,0,1-.75,3.27,1.82,1.82,0,0,1-1.44.66h0C23.6,29.21,22,27.23,21.73,24.93ZM24.4,42.78c-2.4,0-4.29-1.55-4.29-3.52,0-1.81,2.2-3.4,4.71-3.4v-0.7h0l0.06,0.7a5.34,5.34,0,0,1,1.57.25L27,36.47c1.28,0.91,2,1.43,2.15,2.26a2.86,2.86,0,0,1,.07.65C29.19,41.64,27.58,42.78,24.4,42.78Z"/>
        </g>
        <g id="animate-btn-svg-qrcode">
            <use xlink:href="#animate-btn-svg-background-circle-share"></use>
            <path d="M48,30.56H33.44V16H48V30.56ZM36.39,18.88v8.73h8.72V18.88H36.39Z"/>
            <path d="M33.44,48V33.44H48V48H33.44Zm2.94-2.89h8.73V36.39H36.38v8.72Z"/>
            <path d="M30.56,16V30.56H16V16H30.56Zm-3,11.61V18.89H18.89v8.73h8.72Z"/>
            <path d="M16,39.23l0.19,0h2.68v2.86H16V39.23Z"/>
            <path d="M16,45.12h2.88V48H16V45.12Z"/>
            <path d="M27.46,39.23l0.19,0h2.68v2.86H27.46V39.23Z"/>
            <path d="M27.46,45.12h2.88V48H27.46V45.12Z"/>
            <path d="M27.46,33.7l0.19,0h2.68v2.86H27.46V33.7Z"/>
            <path d="M27.46,39.59h2.88v2.88H27.46V39.59Z"/>
            <path d="M24.61,36.64l0.19,0h2.68v2.86H24.61V36.64Z"/>
            <path d="M24.61,42.53h2.88v2.88H24.61V42.53Z"/>
            <path d="M39.26,21.83h2.86v2.91H39.26V21.83Z"/>
            <path d="M39.26,42.1V39.26h2.86V42.1H39.26Z"/>
            <path d="M21.83,24.74V21.83h2.92v2.91H21.83Z"/>
        </g>
        <g id="animate-btn-svg-email">
            <use xlink:href="#animate-btn-svg-background-circle-share"></use>
            <path d="M15.986 20.421c-.862.226-1.74 1.116-1.911 1.953-.062.271-.085 3.264-.07 9.854l.023 9.462.264.475c.326.581.893 1.086 1.484 1.319l.427.166 15.616.023c17.232.015 16.028.053 16.836-.452.489-.302.816-.671 1.103-1.267l.241-.49v-9.462c0-8.889-.008-9.484-.14-9.801-.342-.852-1.08-1.538-1.88-1.772-.319-.098-2.541-.113-15.997-.106-12.47 0-15.702.023-15.997.098zm32.095 1.35c.373.234.598.626.653 1.123.047.43.194.286-2.036 2.036-.917.716-2.16 1.704-2.758 2.179-.598.475-2.331 1.832-3.846 3.016-1.515 1.176-3.178 2.48-3.69 2.895-2.377 1.922-4.39 3.438-4.483 3.385-.155-.09-2.525-1.938-9.852-7.698l-6.798-5.345v-.452c0-.573.256-.988.754-1.229l.334-.158 15.702.015 15.694.023.326.211zm-31.722 4.064c.513.392 4.11 3.219 8.002 6.28 3.892 3.053 7.179 5.609 7.311 5.669.148.075.326.098.451.068.194-.045 3.426-2.511 6.184-4.727.746-.596 2.657-2.096 4.234-3.325 1.585-1.236 3.349-2.616 3.924-3.084 1.678-1.342 2.253-1.749 2.292-1.636.023.06.031 3.747.023 8.203l-.023 8.105-.21.354c-.163.256-.319.4-.622.543l-.404.196h-15.515c-15.018 0-15.531-.008-15.857-.143-.396-.166-.629-.4-.8-.777-.101-.249-.117-1.244-.117-8.436 0-6.514.023-8.142.101-8.082l1.026.792z" fill-rule="evenodd" fill="#fff" stroke-width=".1" stroke="rgba(0,0,0,0)"/>
        </g>
    </defs>
</svg>